<?xml version="1.0" standalone="yes"?>
<svg xmlns="http://www.w3.org/2000/svg" width="164" height="154">
<path style="fill:#010101; stroke:none;" d="M0 0L0 64L1 64C3.46993 33.7601 33.7601 3.46997 64 1L44 0L0 0z"/>
<path style="fill:#f99d0f; stroke:none;" d="M13 33C25.7159 30.6042 44.2696 31.7745 55.8264 26.436C62.8003 23.2144 73.8129 7.83597 77 1C54.5132 -5.64673 23.7554 14.3932 13 33z"/>
<path style="fill:#41b93d; stroke:none;" d="M76 0L99.8302 30L110 42C111.983 34.7357 120.954 19.7361 118.303 12.3789C117.011 8.79161 111.186 6.90689 108 5.60493C97.4015 1.27411 87.344 0 76 0z"/>
<path style="fill:#010101; stroke:none;" d="M90 0L90 1C99.5442 1.77957 108.928 5.81183 117 10.814C165.21 40.6913 166.058 112.024 118 142.564C109.716 147.828 99.8631 152.194 90 153L90 154L164 154L164 0L90 0M57 27L97 27C93.9339 21.6186 83.8605 4.20679 76.9992 4.20679C70.0861 4.20679 59.7593 21.4605 57 27z"/>
<path style="fill:#a29d3b; stroke:none;" d="M119 12L120 13L119 12z"/>
<path style="fill:#f99d0f; stroke:none;" d="M119 13C115.245 31.143 108.073 50.7381 97.9228 66.1698C92.7475 74.0379 89.0721 82.9773 84.0502 91C81.9857 94.2981 77.7922 98.927 77.8488 103C78.0487 117.391 98.1982 126.026 109.674 118.976C116.598 114.723 121.298 101.925 125.139 95C131.37 83.7649 135.827 70.9414 140.6 59C142.574 54.062 146.263 47.4607 145.516 42C144.485 34.4597 137.093 27.1012 131.996 22.0039C128.136 18.1441 124.367 14.3957 119 13z"/>
<path style="fill:#a29d3b; stroke:none;" d="M118 15L119 16L118 15M117.333 18.6667L117.667 19.3333L117.333 18.6667M116 22L117 23L116 22M115 25L116 26L115 25M51 27L51 28L56 28L51 27z"/>
<path style="fill:#1675c4; stroke:none;" d="M0 73C21.8751 66.0053 45.2115 64.0372 68 63.0394C75.6623 62.7038 93.37 66.9902 99.6065 62.9722C111.207 55.4986 109.84 34.2719 97.9599 28.0278C92.7785 25.3045 83.7214 27 78 27C62.4517 27 47.4368 28.3111 32 30.0502C26.3118 30.691 16.9467 30.916 12.3287 34.5887C2.81651 42.154 0.00745907 61.7368 0 73z"/>
<path style="fill:#a29d3b; stroke:none;" d="M41 28L41 29L46 29L41 28M114.333 28.6667L114.667 29.3333L114.333 28.6667M33 29L33 30L37 30L33 29M26 30L26 31L29 31L26 30M21.6667 31.3333L22.3333 31.6667L21.6667 31.3333M113 31L114 32L113 31M15 32L15 33L18 33L15 32M112 34L113 35L112 34M111 37L112 38L111 37M110.333 39.6667L110.667 40.3333L110.333 39.6667M109 42L110 43L109 42M146 43L147 44L146 43z"/>
<path style="fill:#41b93d; stroke:none;" d="M146 44L130.907 84L142 115L145 115C152.767 96.319 162.754 61.2677 146 44z"/>
<path style="fill:#a29d3b; stroke:none;" d="M108 45L109 46L108 45M145.333 45.6667L145.667 46.3333L145.333 45.6667M107 47L108 48L107 47M144 48L145 49L144 48M106 50L107 51L106 50M143 51L144 52L143 51M105 52L106 53L105 52M104 54L105 55L104 54M142 54L143 55L142 54M103.333 56.6667L103.667 57.3333L103.333 56.6667M141.333 56.6667L141.667 57.3333L141.333 56.6667M102 59L103 60L102 59M140 59L141 60L140 59M101 61L102 62L101 61M139.333 61.6667L139.667 62.3333L139.333 61.6667z"/>
<path style="fill:#010101; stroke:none;" d="M55 64C58.8378 77.3219 68.3999 90.5143 76 102L78 102L99 64L55 64z"/>
<path style="fill:#a29d3b; stroke:none;" d="M100 63L101 64L100 63z"/>
<path style="fill:#41b93d; stroke:none;" d="M112 147C103.358 134.731 91.8654 124.211 82.8843 112C75.5389 102.013 69.4065 90.7743 63.2809 80C60.8925 75.7991 58.3661 67.8224 54.3627 65.0278C51.3198 62.9037 46.3568 64.303 43 64.7153C32.8202 65.9655 24.2099 70.8365 24.2099 83C24.2099 89.0229 29.0691 95.9602 32.0116 101C39.6232 114.037 48.4388 126.049 57.6512 138C61.3569 142.807 66.1328 151.174 72.0147 153.397C84.7211 158.199 100.14 150.39 112 147z"/>
<path style="fill:#a29d3b; stroke:none;" d="M138 64L139 65L138 64M28 66L28 67L31 68L28 66M137 66L138 67L137 66M22 67L22 68L25 68L22 67z"/>
<path style="fill:#f99d0f; stroke:none;" d="M11 116L30 67C23.6198 67.2746 5.15924 68.4156 1.02778 73.7276C-0.875768 76.1751 -0.030599 81.1034 0.00385802 84C0.122763 93.9957 3.14626 109.249 11 116z"/>
<path style="fill:#a29d3b; stroke:none;" d="M17 68L17 69L20 69L17 68M13.6667 69.3333L14.3333 69.6667L13.6667 69.3333M29 69L30 70L29 69M136 69L137 70L136 69M8.66667 70.3333L9.33333 70.6667L8.66667 70.3333M4.66667 71.3333L5.33333 71.6667L4.66667 71.3333M28 71L29 72L28 71M135 71L136 72L135 71M1 72L2 73L1 72M27 73L28 74L27 73M134 73L135 74L134 73M26 75L27 76L26 75M133 75L134 76L133 75M25 77L26 78L25 77M132 77L133 78L132 77M24 79L25 80L24 79M131 80L132 81L131 80M23 81L23 84L24 84L23 81M130.333 82.6667L130.667 83.3333L130.333 82.6667z"/>
<path style="fill:#010101; stroke:none;" d="M23 84L12 115L44 120L23 84M130 85L110 120L142 115C139.839 105.664 136.052 92.4909 130 85M0 90L0 154L64 154L64 153C40.1919 151.055 18.6824 132.365 7.88966 112C4.17577 104.992 3.35522 96.9681 0 90z"/>
<path style="fill:#a29d3b; stroke:none;" d="M77 104L78 105L77 104M79 107L80 108L79 107M80 108L81 109L80 108M81 110L82 111L81 110M82 111L83 112L82 111M84 114L85 115L84 114z"/>
<path style="fill:#1675c4; stroke:none;" d="M11 115C11.946 122.113 17.1101 127.109 22.0008 131.999C34.8552 144.854 52.534 153.847 71 154C64.7687 144.58 54.3094 126.978 44.8264 120.938C37.4497 116.24 19.7514 115.377 11 115z"/>
<path style="fill:#a29d3b; stroke:none;" d="M85 115L86 116L85 115z"/>
<path style="fill:#1675c4; stroke:none;" d="M90 122C94.2041 128.356 104.044 143.737 112 145.122C115.745 145.774 120.208 141.881 123 139.841C131.285 133.787 140.803 125.015 144 115L90 122z"/>
<path style="fill:#a29d3b; stroke:none;" d="M10 116L11 117L10 116M87 118L88 119L87 118M88 119L89 120L88 119M103 120L103 121L109 121L103 120M90 121L90 122L97 122L90 121z"/>
</svg>
