<svg height="50" width="30" xmlns="http://www.w3.org/2000/svg" xmlns:xlink="http://www.w3.org/1999/xlink"><mask id="a" fill="#fff"><path d="m0 0h29.915v49.78h-29.915z" fill="#fff" fill-rule="evenodd"/></mask><g fill="#3bd0a7" fill-rule="evenodd"><path d="m13 16h4v-3h-4z"/><path d="m21.194 35.879h-3.622l-4.069-4.472h-.834v4.455h-2.748v-11.66h2.748v4.465h.848l4.14-4.466 3.621-.006-5.348 5.837zm-11.273-26.096h7.221l2.75 2.726v5.853h-7.223v3.083h-2.748zm18.111-3.719-6.1-6.064h-.356l-14.989.009-6.587.004v38.406c0 2.768 1.63 5.301 4.155 6.453l10.733 4.9.018.008.051-.023.035.015.017.008 10.752-4.908a7.114 7.114 0 0 0 4.154-6.453v-30.586z" mask="url(#a)"/></g></svg>