<svg xmlns="http://www.w3.org/2000/svg" xmlns:xlink="http://www.w3.org/1999/xlink" id="Layer_1" x="0px" y="0px" viewBox="0 0 792 298" style="enable-background:new 0 0 792 298;" xml:space="preserve">
<style type="text/css">
	.st0{fill-rule:evenodd;clip-rule:evenodd;fill:url(#Combined-Shape-Copy_1_);}
	.st1{fill-rule:evenodd;clip-rule:evenodd;fill:url(#Combined-Shape_1_);}
	.st2{fill:#051B47;}
</style>
<g>
	<g>
		
			<linearGradient id="Combined-Shape-Copy_1_" gradientUnits="userSpaceOnUse" x1="-356.9554" y1="-138.5466" x2="-357.1092" y2="-138.6033" gradientTransform="matrix(-423 0 0 729 -150945 101185)">
			<stop offset="0" style="stop-color:#00A9FF"></stop>
			<stop offset="1" style="stop-color:#1663FF"></stop>
		</linearGradient>
		<polygon id="Combined-Shape-Copy_25_" class="st0" points="71.2,169.3 71.2,250.2 140.1,288.2 140.1,207.3 140.1,126.3 2.2,50.4     2.2,131.4   "></polygon>
		
			<linearGradient id="Combined-Shape_1_" gradientUnits="userSpaceOnUse" x1="-356.5779" y1="-138.4121" x2="-356.3095" y2="-138.4999" gradientTransform="matrix(423 0 0 729 150961 101052)">
			<stop offset="0" style="stop-color:#00A9FF"></stop>
			<stop offset="1" style="stop-color:#1663FF"></stop>
		</linearGradient>
		<polygon id="Combined-Shape_25_" class="st1" points="171.3,125.9 171.3,206.9 102.3,244.8 102.3,163.9 102.3,83 240.3,7.1     240.3,88   "></polygon>
	</g>
	<g>
		<path class="st2" d="M322.9,133.7V144c0,0.2-0.2,0.3-0.3,0.3h-21.3v60.5c0,0.2-0.2,0.3-0.3,0.3h-12.7c-0.2,0-0.3-0.2-0.3-0.3    v-60.5h-21.4c-0.2,0-0.3-0.2-0.3-0.3v-10.3c0-0.2,0.2-0.3,0.3-0.3h56C322.8,133.4,322.9,133.5,322.9,133.7z"></path>
		<path class="st2" d="M359.4,177.2v27.7c0,0.2-0.2,0.4-0.4,0.4h-12.6c-0.2,0-0.4-0.2-0.4-0.4v-71.1c0-0.2,0.2-0.4,0.4-0.4h21.5    c4.9,0,9.1,0.5,12.6,1.5s6.4,2.4,8.6,4.2s3.9,4,4.9,6.5s1.6,5.3,1.6,8.4c0,2.4-0.4,4.7-1.1,6.9s-1.7,4.1-3.1,5.9    c-1.3,1.8-3,3.3-5,4.6c-2.5,1.5-3.1,1.7-5.6,2.3l20.8,31c0.2,0.3,0,0.6-0.3,0.6H390c-1.2,0-2.1-0.2-3-0.7c-0.8-0.5-1.5-1.1-2.1-2    l-15.1-23c-0.6-0.9-1.2-1.5-1.9-1.8c-0.7-0.4-1.7-0.5-3-0.5L359.4,177.2L359.4,177.2z M359.4,167.6h8.4c2.5,0,4.7-0.3,6.6-0.9    s3.4-1.5,4.6-2.6s2.1-2.4,2.7-4c0.6-1.5,0.9-3.2,0.9-5c0-3.6-1.2-6.4-3.6-8.4s-6.1-2.9-11-2.9h-8.5v23.8L359.4,167.6L359.4,167.6z    "></path>
		<path class="st2" d="M489.5,169.3c0,5.3-0.9,10.1-2.6,14.6c-1.8,4.5-4.2,8.4-7.4,11.7c-3.2,3.3-7,5.8-11.5,7.7    c-4.5,1.8-9.4,2.8-14.9,2.8c-5.4,0-10.4-0.9-14.9-2.8c-4.5-1.8-8.3-4.4-11.5-7.7s-5.7-7.2-7.4-11.7c-1.8-4.5-2.6-9.4-2.6-14.6    s0.9-10.1,2.6-14.6c1.8-4.5,4.2-8.4,7.4-11.7c3.2-3.3,7-5.8,11.5-7.7c4.5-1.8,9.5-2.8,14.9-2.8s10.4,0.9,14.9,2.8    c4.5,1.9,8.3,4.4,11.5,7.7s5.7,7.1,7.4,11.6C488.6,159.2,489.5,164,489.5,169.3z M475.8,169.3c0-3.9-0.5-7.5-1.6-10.6    c-1-3.1-2.5-5.8-4.5-8s-4.3-3.9-7.1-5c-2.8-1.2-6-1.7-9.5-1.7s-6.7,0.6-9.5,1.7c-2.8,1.2-5.2,2.8-7.2,5s-3.5,4.8-4.5,8    c-1.1,3.1-1.6,6.7-1.6,10.6s0.5,7.5,1.6,10.6s2.6,5.8,4.5,8c2,2.2,4.4,3.8,7.2,5c2.8,1.2,6,1.7,9.5,1.7s6.7-0.6,9.5-1.7    c2.8-1.2,5.2-2.8,7.1-5c2-2.2,3.5-4.8,4.5-8C475.3,176.8,475.8,173.2,475.8,169.3z"></path>
		<path class="st2" d="M503.1,133.7c-0.1-0.2,0.1-0.3,0.2-0.3h10.4c1.2,0,2.1,0.3,2.8,0.8c0.7,0.6,1.3,1.3,1.6,2.2    c0,0,19.5,52,20,53.9c0.8-3.8,19.7-53.9,19.7-53.9c0.3-0.8,0.8-1.5,1.6-2.1s1.7-0.9,2.8-0.9h10.4c0.2,0,0.3,0.2,0.2,0.3L544,205.1    c0,0.1-0.1,0.1-0.2,0.1H532c-0.1,0-0.2-0.1-0.2-0.1L503.1,133.7z"></path>
		<path class="st2" d="M649,204.6c0.1,0.3-0.1,0.6-0.4,0.6H639c-1.2,0-2.1-0.3-2.9-0.9c-0.7-0.6-1.3-1.3-1.6-2.2l-5.4-14.7h-29.8    l-5.4,14.7c-0.3,0.8-0.8,1.5-1.6,2.1s-1.7,1-2.9,1h-9.7c-0.3,0-0.5-0.3-0.4-0.7l27.9-70.9c0.1-0.2,0.2-0.3,0.4-0.3h13    c0.2,0,0.4,0.1,0.4,0.3L649,204.6z M602.8,178.1h22.9c0,0-11-30.7-11.5-32.4C613.7,147.4,602.8,178.1,602.8,178.1z"></path>
		<path class="st2" d="M712.9,133.7v10.4c0,0.2-0.1,0.3-0.3,0.3h-21.3V205c0,0.2-0.1,0.3-0.3,0.3h-12.8c-0.2,0-0.3-0.1-0.3-0.3    v-60.6h-21.4c-0.2,0-0.3-0.1-0.3-0.3v-10.4c0-0.2,0.1-0.3,0.3-0.3h56.1C712.7,133.4,712.9,133.5,712.9,133.7z"></path>
		<path class="st2" d="M789.8,204.7c0.1,0.3-0.1,0.5-0.4,0.5h-9.8c-1.2,0-2.1-0.3-2.9-0.9c-0.7-0.6-1.3-1.3-1.6-2.2l-5.4-14.7H740    l-5.4,14.7c-0.3,0.8-0.8,1.5-1.6,2.1s-1.7,1-2.9,1h-9.8c-0.3,0-0.5-0.4-0.4-0.6l27.9-71.1c0.1-0.1,0.2-0.2,0.4-0.2h13.1    c0.2,0,0.3,0.1,0.4,0.2L789.8,204.7z M743.5,178.1h22.9c0,0-11-30.7-11.5-32.4C754.4,147.4,743.5,178.1,743.5,178.1z"></path>
	</g>
</g>
</svg>