<?xml version="1.0" standalone="no"?>
<!DOCTYPE svg PUBLIC "-//W3C//DTD SVG 20010904//EN"
 "http://www.w3.org/TR/2001/REC-SVG-20010904/DTD/svg10.dtd">
<svg version="1.0" xmlns="http://www.w3.org/2000/svg"
 width="134.000000pt" height="126.000000pt" viewBox="0 0 134.000000 126.000000"
 preserveAspectRatio="xMidYMid meet">

<g transform="translate(0.000000,126.000000) scale(0.100000,-0.100000)"
fill="#000000" stroke="none">
<path d="M0 605 l0 -605 670 0 670 0 0 605 0 605 -670 0 -670 0 0 -605z m850
391 c89 -19 163 -36 165 -38 8 -8 -19 -108 -30 -108 -6 0 -78 13 -158 30
l-146 29 -156 -31 c-85 -17 -158 -28 -161 -25 -9 8 -25 99 -19 105 5 5 302 70
327 71 9 1 89 -14 178 -33z m-510 -141 c43 -221 81 -313 177 -427 48 -58 148
-148 163 -148 18 0 123 94 170 153 28 34 65 90 82 124 18 34 34 60 36 58 6 -6
-40 -89 -83 -150 -52 -74 -158 -175 -237 -225 l-58 -38 40 -26 c22 -14 46 -26
53 -26 24 0 181 135 245 211 85 102 138 207 172 344 15 61 31 135 35 164 8 56
8 55 -57 66 -21 3 -38 10 -38 14 0 10 111 -11 112 -22 2 -26 -17 -132 -42
-232 -54 -219 -179 -395 -373 -527 l-59 -40 -54 36 c-128 85 -272 252 -329
380 -38 87 -105 370 -90 385 7 6 108 29 113 25 2 -1 12 -46 22 -99z m697 33
c-3 -7 -5 -2 -5 12 0 14 2 19 5 13 2 -7 2 -19 0 -25z m-190 -35 c103 -19 143
-31 143 -41 0 -32 -43 -179 -67 -226 -54 -109 -204 -276 -247 -276 -23 0 -156
137 -204 210 -42 65 -88 187 -99 265 l-5 41 133 26 c74 14 149 27 168 27 19 1
99 -11 178 -26z m242 8 l23 -18 -33 0 c-19 -1 -28 1 -21 4 10 4 10 8 1 19 -16
20 2 17 30 -5z m-62 -23 c-3 -7 -5 -2 -5 12 0 14 2 19 5 13 2 -7 2 -19 0 -25z
m-10 -50 c-3 -7 -5 -2 -5 12 0 14 2 19 5 13 2 -7 2 -19 0 -25z m-10 -40 c-3
-8 -6 -5 -6 6 -1 11 2 17 5 13 3 -3 4 -12 1 -19z m83 13 c0 -4 -13 -8 -30 -7
-39 1 -39 16 0 16 17 0 30 -4 30 -9z m-93 -53 c-3 -8 -6 -5 -6 6 -1 11 2 17 5
13 3 -3 4 -12 1 -19z m63 -18 c13 -9 13 -10 0 -10 -8 0 -22 5 -30 10 -13 9
-13 10 0 10 8 0 22 -5 30 -10z m-73 -22 c-3 -8 -6 -5 -6 6 -1 11 2 17 5 13 3
-3 4 -12 1 -19z m43 -31 c21 6 29 -20 10 -32 -6 -4 -7 1 -3 11 5 14 3 15 -15
5 -23 -12 -39 0 -26 21 5 8 9 9 11 1 2 -6 13 -9 23 -6z m-26 -98 c-3 -5 0 -9
7 -9 7 0 10 -2 7 -5 -9 -9 -58 6 -58 17 0 6 7 8 14 5 11 -4 13 -1 9 11 -6 15
-5 15 10 3 9 -7 14 -17 11 -22z m-48 -64 c-3 -8 0 -16 7 -18 7 -2 10 -7 7 -10
-3 -3 -16 3 -30 14 -18 14 -20 17 -6 12 16 -5 18 -3 13 11 -4 11 -3 15 4 11 6
-4 8 -13 5 -20z m-39 -91 c-6 -6 -47 9 -47 17 0 5 11 3 25 -3 14 -6 24 -13 22
-14z m-62 -44 c10 -11 14 -20 8 -20 -5 0 -18 9 -28 20 -10 11 -14 20 -8 20 5
0 18 -9 28 -20z m-36 -56 c2 -2 -6 -4 -19 -4 -20 0 -21 -2 -9 -17 11 -15 10
-14 -9 1 -12 11 -22 23 -22 28 0 7 49 1 59 -8z m-119 -54 c0 -6 10 -15 23 -20
20 -8 20 -9 2 -9 -11 -1 -26 8 -33 19 -7 12 -8 20 -2 20 5 0 10 -5 10 -10z"/>
<path d="M522 985 c-84 -18 -156 -35 -159 -38 -3 -3 -2 -24 2 -47 6 -36 10
-41 29 -37 11 3 81 17 154 32 l132 26 133 -26 c72 -15 142 -29 153 -32 19 -4
23 1 29 37 4 23 5 43 2 46 -3 3 -210 50 -302 67 -11 3 -89 -10 -173 -28z m167
-37 c1 -5 -6 -8 -14 -8 -9 0 -12 6 -9 15 4 8 1 15 -5 15 -6 0 -12 -8 -12 -17
-1 -17 -2 -17 -6 0 -2 9 -9 15 -14 12 -5 -4 -9 -2 -9 4 0 5 12 11 28 13 24 3
39 -9 41 -34z m21 32 c0 -5 -2 -10 -4 -10 -3 0 -8 5 -11 10 -3 6 -1 10 4 10 6
0 11 -4 11 -10z m60 -23 c0 -21 0 -21 -16 1 -8 12 -20 19 -26 16 -6 -4 -8 -2
-5 4 12 17 47 2 47 -21z m-160 4 c0 -5 -9 -7 -20 -4 -11 3 -20 7 -20 9 0 2 9
4 20 4 11 0 20 -4 20 -9z m-70 -20 c0 -23 -16 -36 -25 -21 -9 14 1 40 15 40 5
0 10 -9 10 -19z m300 7 c0 -6 -3 -8 -7 -5 -3 4 -12 -1 -19 -11 -12 -15 -12
-15 -7 6 5 22 33 31 33 10z m25 2 c3 -5 1 -10 -4 -10 -6 0 -11 5 -11 10 0 6 2
10 4 10 3 0 8 -4 11 -10z m-368 -6 c-3 -3 -12 -4 -19 -1 -8 3 -5 6 6 6 11 1
17 -2 13 -5z m403 -4 c0 -5 -2 -10 -4 -10 -3 0 -8 5 -11 10 -3 6 -1 10 4 10 6
0 11 -4 11 -10z m-433 -20 c3 -10 2 -11 -4 -4 -4 6 -15 14 -23 17 -11 5 -9 6
4 4 11 -1 21 -9 23 -17z m463 11 c0 -5 9 -7 20 -4 11 3 20 0 20 -6 0 -5 -7 -8
-15 -5 -8 4 -15 1 -15 -5 0 -6 -8 -11 -17 -10 -12 0 -13 2 -5 6 10 4 10 8 1
19 -8 10 -8 14 0 14 6 0 11 -4 11 -9z m-63 -17 c-3 -3 -12 -4 -19 -1 -8 3 -5
6 6 6 11 1 17 -2 13 -5z m-437 -13 c0 -5 -7 -12 -16 -15 -14 -5 -15 -4 -4 9
14 17 20 19 20 6z"/>
<path d="M255 931 c-29 -6 -30 -9 -28 -56 3 -75 56 -272 93 -345 18 -36 52
-92 75 -125 47 -66 166 -185 185 -185 16 0 80 39 80 48 -1 4 -24 25 -52 47
-152 119 -237 280 -284 536 -10 52 -21 89 -28 88 -6 -1 -24 -4 -41 -8z m46
-115 c-9 -11 -9 -15 1 -19 7 -2 0 -4 -16 -4 l-29 0 24 18 c29 22 36 24 20 5z
m24 -96 c-3 -5 -16 -10 -28 -10 -18 0 -19 2 -7 10 20 13 43 13 35 0z m18 -100
c-5 -19 -23 -39 -23 -25 0 9 20 45 24 45 2 0 2 -9 -1 -20z m32 -90 c3 -5 13
-7 23 -4 9 3 4 -2 -11 -11 -16 -9 -31 -14 -35 -11 -3 3 0 6 6 6 7 0 12 5 12
11 0 6 -7 8 -16 5 -8 -3 -12 -2 -9 4 8 13 22 13 30 0z m51 -75 c-11 -8 -24
-15 -30 -15 -5 0 -1 7 10 15 10 8 24 14 29 14 6 0 1 -6 -9 -14z m50 -52 c-4
-9 -1 -21 6 -26 9 -6 8 -7 -4 -3 -10 3 -18 0 -18 -6 0 -6 -2 -9 -5 -6 -3 3 0
17 6 32 13 28 25 36 15 9z m67 -101 c-7 -27 -19 -29 -19 -3 0 11 4 17 8 15 4
-3 8 0 8 7 0 7 2 10 5 8 2 -3 2 -15 -2 -27z"/>
<path d="M521 805 c-1 -12 -5 -25 -11 -31 -7 -7 3 -9 28 -7 l37 2 -38 -8 c-20
-4 -40 -11 -44 -14 -8 -9 25 -9 66 -1 25 5 29 9 20 20 -6 8 -17 14 -24 14 -6
0 -17 10 -23 23 -10 21 -11 21 -11 2z"/>
<path d="M820 800 c0 -11 -6 -20 -14 -20 -7 0 -19 -7 -26 -15 -10 -12 -9 -15
6 -15 12 0 15 -3 7 -8 -6 -4 -13 -21 -16 -37 l-4 -30 -2 34 -1 33 -130 -4
c-71 -2 -131 -6 -134 -9 -6 -6 15 -162 24 -172 11 -12 69 4 73 22 4 14 5 14 6
-1 1 -15 11 -18 70 -18 64 0 70 2 74 23 4 21 4 21 6 1 1 -16 10 -23 33 -28 39
-8 44 -1 53 82 4 36 9 71 12 79 3 9 -4 13 -23 14 -27 2 -27 2 6 9 19 4 29 8
22 9 -7 0 -11 5 -8 9 2 4 -10 7 -27 6 -18 -1 -22 1 -9 3 15 3 22 11 22 29 0
13 -4 24 -10 24 -5 0 -10 -9 -10 -20z m-233 -117 c-3 -10 -5 -2 -5 17 0 19 2
27 5 18 2 -10 2 -26 0 -35z m60 11 c-3 -3 -12 -4 -19 -1 -8 3 -5 6 6 6 11 1
17 -2 13 -5z m81 -1 c-10 -3 -15 -11 -12 -21 5 -15 4 -15 -9 1 -8 10 -17 14
-18 9 -2 -6 -10 -4 -17 4 -11 12 -6 14 30 13 24 -1 35 -3 26 -6z m39 -70 c-3
-10 -5 -2 -5 17 0 19 2 27 5 18 2 -10 2 -26 0 -35z m-170 -10 c-3 -10 -5 -2
-5 17 0 19 2 27 5 18 2 -10 2 -26 0 -35z m82 15 c-1 -16 -3 -18 -6 -6 -2 9
-16 19 -31 21 -24 4 -24 4 6 6 27 1 32 -2 31 -21z m24 5 c-4 -11 -3 -14 5 -9
7 4 12 2 12 -3 0 -6 -7 -11 -15 -11 -8 0 -15 9 -15 20 0 11 4 20 10 20 5 0 6
-7 3 -17z m37 7 c0 -5 -2 -10 -4 -10 -3 0 -8 5 -11 10 -3 6 -1 10 4 10 6 0 11
-4 11 -10z m-100 -20 c0 -5 -5 -10 -11 -10 -5 0 -7 5 -4 10 3 6 8 10 11 10 2
0 4 -4 4 -10z"/>
<path d="M543 543 c-28 -5 -30 -20 -3 -28 11 -3 23 -18 27 -33 l7 -27 6 30 c5
26 2 31 -20 37 -19 5 -17 6 12 5 23 -2 39 2 42 10 5 13 -22 15 -71 6z"/>
<path d="M745 538 c4 -9 18 -13 43 -11 29 1 32 1 11 -5 -21 -6 -24 -11 -19
-32 l6 -25 8 23 c4 12 14 22 21 22 13 0 30 18 24 25 -2 2 -25 6 -52 10 -38 6
-46 5 -42 -7z"/>
</g>
</svg>
